<svg width="11" height="11" viewBox="0 0 11 11" fill="none" xmlns="http://www.w3.org/2000/svg">
<path d="M0.052538 5.64038C0.139686 5.49175 2.22512 2 5.5 2C8.77488 2 10.8603 5.49175 10.9475 5.64038C11.0175 5.75977 11.0175 5.90905 10.9475 6.02845C10.8603 6.17707 8.77488 9.66882 5.5 9.66882C2.22512 9.66882 0.139686 6.17707 0.052538 6.02845C-0.0175135 5.90905 -0.0175135 5.75977 0.052538 5.64038ZM5.5 8.91567C7.94568 8.91567 9.72151 6.53778 10.1934 5.83408C9.72239 5.12954 7.95166 2.7532 5.5 2.7532C3.05432 2.7532 1.27849 5.1311 0.806645 5.83479C1.27761 6.53928 3.04834 8.91567 5.5 8.91567Z" fill="#bfbfbf"/>
<path d="M5.5 3.49268C6.68076 3.49276 7.6377 4.54112 7.6377 5.83447C7.63769 7.1277 6.68076 8.17619 5.5 8.17627C4.31907 8.17627 3.36231 7.12775 3.3623 5.83447C3.3623 4.54107 4.31907 3.49268 5.5 3.49268ZM6.12305 4.05615C5.63874 4.05615 5.24609 4.4865 5.24609 5.01709C5.2461 5.54767 5.63874 5.97803 6.12305 5.97803C6.6073 5.97796 6.99999 5.54763 7 5.01709C7 4.48654 6.60731 4.05622 6.12305 4.05615Z" fill="#bfbfbf"/>
</svg>
